<svg id="visual" viewBox="0 0 460 100" width="460" height="100" xmlns="http://www.w3.org/2000/svg" xmlns:xlink="http://www.w3.org/1999/xlink" version="1.1"><rect x="0" y="0" width="460" height="100" fill="#FAC900"></rect><g transform="translate(0.4345471082738044 -3.325973496098772)"><path d="M40.2 -46.9C57.6 -42.6 81.1 -38.3 92.5 -24.9C104 -11.5 103.3 10.9 91.4 24.2C79.5 37.4 56.3 41.5 39.2 48.2C22 55 11 64.5 -1.8 67C-14.7 69.6 -29.4 65.1 -46.2 58.2C-63 51.4 -81.9 42.1 -92.4 26.2C-102.9 10.2 -104.9 -12.3 -95.9 -28.4C-86.8 -44.5 -66.6 -54.2 -48.8 -58.4C-31 -62.6 -15.5 -61.3 -2.1 -58.5C11.4 -55.6 22.7 -51.3 40.2 -46.9" fill="#fff"></path></g></svg>