<svg id="visual" viewBox="0 0 460 100" width="460" height="100" xmlns="http://www.w3.org/2000/svg" xmlns:xlink="http://www.w3.org/1999/xlink" version="1.1"><rect x="0" y="0" width="460" height="100" fill="#FAC900"></rect><defs><linearGradient id="grad1_0" x1="78.3%" y1="0%" x2="100%" y2="100%"><stop offset="-41.999999999999986%" stop-color="#fac900" stop-opacity="1"></stop><stop offset="141.99999999999997%" stop-color="#fac900" stop-opacity="1"></stop></linearGradient></defs><defs><linearGradient id="grad2_0" x1="0%" y1="0%" x2="21.7%" y2="100%"><stop offset="-41.999999999999986%" stop-color="#fac900" stop-opacity="1"></stop><stop offset="141.99999999999997%" stop-color="#fac900" stop-opacity="1"></stop></linearGradient></defs><g transform="translate(460, 0)"><path d="M0 80C-10.2 78.7 -20.4 77.5 -30.6 73.9C-40.9 70.4 -51.1 64.5 -55.9 55.9C-60.6 47.2 -59.7 35.8 -62.8 26C-65.9 16.2 -73 8.1 -80 0L0 0Z" fill="#fff"></path></g><g transform="translate(0, 100)"><path d="M0 -80C11.4 -79.8 22.9 -79.6 30.6 -73.9C38.4 -68.3 42.5 -57.2 49.5 -49.5C56.5 -41.8 66.5 -37.5 72.1 -29.8C77.6 -22.2 78.8 -11.1 80 0L0 0Z" fill="#fff"></path></g></svg>