<svg id="visual" viewBox="0 0 460 100" width="460" height="100" xmlns="http://www.w3.org/2000/svg" xmlns:xlink="http://www.w3.org/1999/xlink" version="1.1"><rect x="0" y="0" width="460" height="100" fill="#FAC900"></rect><g transform="translate(463.4536886413066 -2.9370957785492138)"><path d="M27.2 -40.4C39.8 -39.8 57.8 -41.8 62.8 -35.5C67.9 -29.2 59.9 -14.6 55.7 -2.5C51.4 9.7 50.8 19.3 46.4 26.7C42 34.1 33.7 39.1 25.4 45.8C17 52.4 8.5 60.7 0.6 59.7C-7.3 58.7 -14.7 48.4 -25.9 43.4C-37.2 38.4 -52.4 38.7 -61.2 32.4C-70 26 -72.5 13 -70.9 0.9C-69.3 -11.2 -63.7 -22.3 -56.9 -32.3C-50.2 -42.3 -42.3 -51 -32.7 -53.3C-23 -55.5 -11.5 -51.3 -2.1 -47.6C7.3 -44 14.6 -40.9 27.2 -40.4" fill="#fff"></path></g></svg>